<?xml version="1.0" encoding="UTF-8"?>
<svg width="512" height="512" version="1.1" viewBox="0 0 135.47 135.47" xmlns="http://www.w3.org/2000/svg">
 <g transform="matrix(.99066 0 0 .99066 -66.631 10.78)" stroke-width="11.217" aria-label="">
  <g>
   <path d="m183.02 23.663q2.5161-2.5161 6.1505-2.5161 3.914 0 6.4301 2.5161 2.7957 2.7957 2.7957 6.4301t-2.7957 6.4301l-53.957 55.075q-1.1183 0.55914-1.3978 0.8387-0.27956 0-0.55913 0.27957l-0.27957 0.27957q-0.27957 0-0.55914 0.27957-1.6774 0.55914-3.0752 0.55914-0.55914 0-0.8387 0-0.27957-0.27957-0.55914-0.27957-1.1183 0-1.6774-0.27957l-1.957-1.1183q-0.27957-0.27957-0.55914-0.27957 0 0-0.27957-0.27957-0.27956-0.27957-0.55913-0.27957l-53.677-54.795q-2.7957-2.7957-2.7957-6.4301t2.7957-6.4301q2.5161-2.5161 6.1505-2.5161 3.914 0 6.4301 2.5161l43.054 43.333q2.2365 1.3978 4.4731 1.3978t4.4731-1.3978z" color="#000000"/>
   <path d="m81.814 15.537c-3.7172 0-7.4831 1.528-10.115 4.1602-2.7231 2.7231-4.4395 6.5335-4.4395 10.395s1.7164 7.6734 4.4395 10.396l55.285 56.439h0.31445l0.55859 0.55859h0.90235l1.2891 0.73633 0.13867 0.06836c0.71385 0.35693 1.3156 0.5083 1.9023 0.63281l0.51953 0.51953h3.1621c1.6642 0 3.2566-0.32768 4.8047-0.83984h1.1524l0.55859-0.55859h0.28125l1.0781-1.0781c0.10266-0.08868 0.2663-0.23276 0.50391-0.35156l0.83984-0.42188 54.574-55.705c2.7231-2.7231 4.4395-6.5355 4.4395-10.396s-1.7164-7.6715-4.4395-10.395c-2.7056-2.7056-6.5834-4.1602-10.395-4.1602-3.7172 0-7.485 1.528-10.117 4.1602l-0.0137 0.01172-0.0117 0.01367-42.086 42.637c-0.48868 0.24673-0.91828 0.42578-1.1699 0.42578-0.25238 0-0.68258-0.17708-1.1738-0.42578l-42.381-42.656-0.0059-0.0059c-2.7056-2.7056-6.5853-4.1602-10.396-4.1602zm0 11.219c1.4075 0 1.8156 0.22383 2.4648 0.87305l43.496 43.779 0.55078 0.34375c2.2036 1.3772 4.7858 2.25 7.4453 2.25 2.6595 0 5.2418-0.87278 7.4453-2.25l0.55664-0.34766 43.213-43.775c0.72166-0.72142 1.0557-0.87305 2.1836-0.87305 1.4075 0 1.8137 0.22383 2.4629 0.87305 1.0045 1.0045 1.1543 1.4781 1.1543 2.4629s-0.14978 1.4603-1.1543 2.4648l-0.0195 0.02148-53.256 54.357c-0.26146 0.11385-0.64029 0.4016-0.96875 0.63476-0.25844 0.13541-0.40944 0.29228-0.6289 0.44336-0.0236 0.01121-0.0548 0.01203-0.0781 0.02344-0.3729 0.09067-0.78137 0.18945-0.91016 0.18945h-0.21289c-0.22947-0.05048-0.42936-0.13648-0.67382-0.16016l-1.3633-0.7793 0.86524 0.66211c-2e-3 -4e-5 8e-3 4e-3 6e-3 0.0039l0.3125 0.23828c-0.42764-0.42763-1.0556-0.90902-1.834-1.2852l-53.221-54.328-0.01953-0.02148c-1.0045-1.0045-1.1543-1.48-1.1543-2.4648 0-0.98482 0.14978-1.4584 1.1543-2.4629 0.72266-0.72266 1.055-0.87305 2.1836-0.87305z" color="#000000"/>
  </g>
 </g>
</svg>
