<?xml version="1.0" encoding="UTF-8"?>
<!-- Created with Inkscape (http://www.inkscape.org/) -->
<svg width="512" height="512" version="1.1" viewBox="0 0 135.47 135.47" xmlns="http://www.w3.org/2000/svg">
 <text transform="scale(.26458)" fill="black" font-family="sans-serif" font-size="40px" style="line-height:1.25;shape-inside:url(#rect5215);white-space:pre" xml:space="preserve"/>
 <g transform="matrix(1 0 0 1 -.068202 -41.117)" stroke-width="11.112" aria-label="">
  <g>
   <path d="m100.69 155.83q2.4871 2.4871 2.4871 6.3559 0 3.5925-2.4871 6.0795-2.7634 2.7634-6.3559 2.7634t-6.3559-2.7634l-53.058-53.058q-2.4871-2.4871-2.4871-6.0795 0-3.8688 2.4871-6.3559l52.781-53.334q2.7634-2.7634 6.3559-2.7634 3.5925 0 6.0795 2.7634 2.7634 2.4871 2.7634 6.0795t-2.7634 6.3559l-43.386 43.938q-1.3817 1.3817-1.3817 3.3161 0 1.6581 1.3817 3.0398z" color="#000000" style="-inkscape-stroke:none"/>
   <path d="m94.055 41.117c-3.8196 0-7.5916 1.6971-10.285 4.3906l-0.0098 0.01172-52.771 53.322c-3e-3 3e-3 -0.0049 0.0068-0.0078 0.0098-2.671 2.6763-4.1074 6.5097-4.1074 10.275 0 3.6772 1.5113 7.4039 4.1152 10.008l53.059 53.059c2.6935 2.6935 6.4636 4.3906 10.283 4.3906s7.5916-1.6971 10.285-4.3906c2.6039-2.6039 4.1152-6.3306 4.1152-10.008 0-3.7698-1.4386-7.6085-4.1152-10.285l-0.012-0.012-43.178-42.906 42.662-43.205-0.0254 0.02344c2.6935-2.6935 4.3906-6.4636 4.3906-10.283-1e-5 -3.7182-1.6978-7.4381-4.3984-9.9844-2.5466-2.7106-6.2739-4.416-10-4.416zm0 11.113c0.97029 0 1.181 0.07029 1.9492 0.92383l0.19531 0.2168 0.21875 0.19531c0.85354 0.76818 0.92383 0.98088 0.92383 1.9512s-0.14569 1.4348-1.1367 2.4258l-0.01172 0.01367-43.398 43.949 0.02539-0.0234c-1.8379 1.8379-3.0098 4.6316-3.0098 7.2441 0 2.6488 1.3028 5.2618 3.0098 6.9688l0.0059 6e-3 43.932 43.656c0.63947 0.63947 0.85938 1.0392 0.85938 2.4277 0 1.1128-0.14716 1.4382-0.85938 2.1504-0.99103 0.99103-1.4574 1.1367-2.4277 1.1367s-1.4348-0.14569-2.4258-1.1367l-53.059-53.059c-0.71221-0.71221-0.85938-1.0376-0.85938-2.1504 0-1.3886 0.21991-1.7863 0.85938-2.4258l0.0098-0.0117 52.781-53.332c0.98278-0.98019 1.4516-1.127 2.418-1.127z" color="#000000" style="-inkscape-stroke:none"/>
  </g>
 </g>
</svg>
