<?xml version="1.0" encoding="UTF-8"?>
<svg width="512" height="512" version="1.1" viewBox="0 0 135.47 135.47" xmlns="http://www.w3.org/2000/svg">
 <g transform="matrix(3.5373 0 0 3.5373 -276.89 -368.61)" style="white-space:pre">
  <g>
   <path d="m100.55 124.29q0.46875-0.46875 0.46875-0.9375t-0.46875-0.85937l-12.266-12.422q-0.78125-0.78125-0.78125-1.7969 0-1.0156 0.78125-1.7188 0.70312-0.78125 1.7188-0.78125t1.7969 0.78125l14.922 15.078q0.70312 0.70313 0.70312 1.7969 0 1.0156-0.70312 1.7188l-15 15q-0.78125 0.78125-1.7969 0.78125t-1.7969-0.78125q-0.70312-0.70313-0.70312-1.7188 0-1.0938 0.70312-1.7969z" color="#000000"/>
   <path d="m90.006 104.21c-1.0518 0-2.0985 0.48765-2.8184 1.252-0.76431 0.71988-1.252 1.7665-1.252 2.8184 0 1.0766 0.47688 2.1394 1.2344 2.9004l2e-3 2e-3c0.0017 2e-3 0.0022 4e-3 0.0039 6e-3l12.055 12.207-12.209 12.131-2e-3 2e-3c-0.75671 0.75672-1.1621 1.8424-1.1621 2.9082 0 1.0396 0.42597 2.0939 1.1621 2.8301 0.76149 0.7615 1.8283 1.2402 2.9082 1.2402s2.1467-0.47874 2.9082-1.2402l15-15c0.73614-0.73615 1.1621-1.7905 1.1621-2.8301 0-1.0658-0.4054-2.1515-1.1621-2.9082l-14.92-15.074-2e-3 -4e-3c-0.76149-0.76149-1.8283-1.2402-2.9082-1.2402zm0 3.1406c0.27431 0 0.40537 0.0421 0.68555 0.32227l14.92 15.074 2e-3 4e-3c0.18078 0.18079 0.24414 0.29298 0.24414 0.68555 0 0.31458-0.0428 0.40606-0.24414 0.60742l-15 15c-0.28018 0.28017-0.41124 0.32226-0.68555 0.32226-0.27431 0-0.40537-0.0421-0.68555-0.32226-0.20136-0.20136-0.24414-0.29284-0.24414-0.60742 0-0.39257 0.06336-0.50476 0.24414-0.68555l12.42-12.342 2e-3 -2e-3c0.49762-0.49762 0.92774-1.2127 0.92774-2.0488s-0.48331-1.6082-1.0332-2.0664l0.11133 0.10351-12.27-12.426-2e-3 -4e-3c-0.28018-0.28017-0.32226-0.41124-0.32226-0.68554 0-0.27432 0.02042-0.33362 0.26172-0.55078l0.06055-0.0566 0.05664-0.0606c0.21717-0.24131 0.27647-0.26172 0.55078-0.26172z" color="#000000"/>
  </g>
 </g>
</svg>
