<?xml version="1.0" encoding="UTF-8"?>
<!-- Created with Inkscape (http://www.inkscape.org/) -->
<svg width="512" height="512" version="1.1" viewBox="0 0 135.47 135.47" xmlns="http://www.w3.org/2000/svg">
 <g font-size="40px">
  <text transform="scale(.26458)" fill="black" font-family="sans-serif" style="line-height:1.25;shape-inside:url(#rect11217);white-space:pre" xml:space="preserve"/>
  <g transform="matrix(3.3867 0 0 3.3867 -396.55 -503.37)" style="line-height:1.25;shape-inside:url(#rect13120);white-space:pre" aria-label="">
   <text transform="matrix(.078125 0 0 .078125 117.09 148.63)" fill="black" font-family="sans-serif" font-size="40px" style="line-height:1.25;shape-inside:url(#rect15709);white-space:pre" xml:space="preserve"/>
   <g aria-label="">
    <path d="m117.17 186.13v-27.5l10-10h17.5q1.0156 0 1.7188 0.70313 0.78125 0.70312 0.78125 1.7969v2.5h-2.5v-2.5h-15v7.5q0 1.0938-0.78125 1.7969-0.70312 0.70312-1.7969 0.70312h-7.4219v25h25v-2.5h2.5v2.5q0 1.0938-0.70312 1.7969-0.70313 0.70312-1.7969 0.70312h-25q-1.0938 0-1.7969-0.70312-0.70313-0.70313-0.70313-1.7969zm20.859-6.4062q0-0.39062 0.0781-0.46875l5.7031-17.031q0.23437-0.78125 0.85937-1.0156 0.0781-0.0781 0.54688-0.0781 0.625 0 0.9375 0.46875 0.39062 0.46875 0.39062 0.9375t-0.0781 0.54688l-5.625 17.109q-0.3125 1.0156-1.4062 1.0156-0.625 0-1.0156-0.46875-0.39062-0.46875-0.39062-1.0156zm10-1.4062q0-0.54687 0.3125-0.85937l5-6.3281-5-6.25q-0.3125-0.3125-0.3125-0.85937 0-1.4062 1.4062-1.4062 0.625 0 1.1719 0.54687l6.4062 7.9688-6.4062 8.0469q-0.54687 0.54687-1.1719 0.54687-0.54688 0-0.85938-0.3125-0.54687-0.3125-0.54687-1.0938zm-20.391-7.1875 6.4062-7.9688q0.3125-0.54687 1.0938-0.54687 0.54688 0 0.85938 0.3125 0.54687 0.46875 0.54687 1.1719 0 0.39063-0.23437 0.78125l-5 6.25 5 6.3281q0.0781 0.39062 0.0781 0.625 0.0781 0.15625 0.0781 0.23437 0 0.46875-0.3125 0.9375-0.23438 0.46875-1.0156 0.46875-0.54687 0-1.0938-0.54687z"/>
   </g>
  </g>
 </g>
</svg>
