<?xml version="1.0" encoding="UTF-8"?>
<!-- Created with Inkscape (http://www.inkscape.org/) -->
<svg width="512" height="512" version="1.1" viewBox="0 0 135.47 135.47" xmlns="http://www.w3.org/2000/svg">
 <text transform="scale(.26458)" fill="black" font-family="sans-serif" font-size="40px" style="line-height:1.25;shape-inside:url(#rect11217);white-space:pre" xml:space="preserve"/>
 <g transform="matrix(3.3867 0 0 3.3867 -396.55 -503.37)" style="shape-inside:url(#rect13120);white-space:pre" aria-label="">
  <path d="m117.09 183.63v-30q0-1.0938 0.70312-1.7969 0.70313-0.70313 1.7969-0.70313h14.062q0.54687 0 0.9375 0.39063l1.4844 1.7188q0.39063 0.39062 0.9375 0.39062h17.578q1.0938 0 1.7969 0.70313 0.70313 0.70312 0.70313 1.7969v27.5q0 1.0938-0.70313 1.7969-0.70312 0.70312-1.7969 0.70312h-35q-1.0938 0-1.7969-0.70312-0.70312-0.70313-0.70312-1.7969zm3.75-0.0781h32.5q1.25 0 1.25-1.25v-24.922q0-1.25-1.25-1.25h-17.734q-0.54687 0-0.9375-0.39062l-1.4844-1.7188q-0.39063-0.39063-0.9375-0.39063h-11.406q-1.25 0-1.25 1.25v27.422q0 1.25 1.25 1.25z"/>
 </g>
</svg>
